<?xml version="1.0" standalone="no"?>
<!DOCTYPE svg PUBLIC "-//W3C//DTD SVG 20010904//EN"
 "http://www.w3.org/TR/2001/REC-SVG-20010904/DTD/svg10.dtd">
<svg version="1.0" xmlns="http://www.w3.org/2000/svg"
 width="72.000000pt" height="72.000000pt" viewBox="0 0 72.000000 72.000000"
 preserveAspectRatio="xMidYMid meet">
<metadata>
Created by potrace 1.14, written by Peter Selinger 2001-2017
</metadata>
<g transform="translate(0.000000,72.000000) scale(0.100000,-0.100000)"
fill="#000000" stroke="none">
<path d="M360 603 l0 -48 -100 -1 c-74 0 -104 -4 -114 -15 -30 -31 -42 -111
-42 -278 1 -153 2 -165 21 -175 11 -6 23 -15 27 -21 5 -7 8 -7 8 0 0 6 75 10
204 10 156 0 207 4 220 14 14 11 16 38 16 180 0 193 -12 247 -64 285 -34 25
-159 96 -169 96 -4 0 -7 -21 -7 -47z"/>
</g>
</svg>
